<svg xmlns="http://www.w3.org/2000/svg" width="960" height="560" viewBox="0 0 960 560">
<rect x="0" y="0" width="100%" height="100%" fill="#ffffff"/>
<text x="480.0" y="36" text-anchor="middle" font-size="24" font-family="Maple Mono, Cascadia Code, monospace" fill="#1f2937">P99 Latency (ns) by Method</text>
<line x1="90" y1="450.00" x2="930" y2="450.00" stroke="#e5e7eb" stroke-width="1"/>
<text x="80" y="454.00" text-anchor="end" font-size="12" font-family="Maple Mono, Cascadia Code, monospace" fill="#6b7280">0.000</text>
<line x1="90" y1="374.00" x2="930" y2="374.00" stroke="#e5e7eb" stroke-width="1"/>
<text x="80" y="378.00" text-anchor="end" font-size="12" font-family="Maple Mono, Cascadia Code, monospace" fill="#6b7280">771463</text>
<line x1="90" y1="298.00" x2="930" y2="298.00" stroke="#e5e7eb" stroke-width="1"/>
<text x="80" y="302.00" text-anchor="end" font-size="12" font-family="Maple Mono, Cascadia Code, monospace" fill="#6b7280">1542926</text>
<line x1="90" y1="222.00" x2="930" y2="222.00" stroke="#e5e7eb" stroke-width="1"/>
<text x="80" y="226.00" text-anchor="end" font-size="12" font-family="Maple Mono, Cascadia Code, monospace" fill="#6b7280">2314389</text>
<line x1="90" y1="146.00" x2="930" y2="146.00" stroke="#e5e7eb" stroke-width="1"/>
<text x="80" y="150.00" text-anchor="end" font-size="12" font-family="Maple Mono, Cascadia Code, monospace" fill="#6b7280">3085852</text>
<line x1="90" y1="70.00" x2="930" y2="70.00" stroke="#e5e7eb" stroke-width="1"/>
<text x="80" y="74.00" text-anchor="end" font-size="12" font-family="Maple Mono, Cascadia Code, monospace" fill="#6b7280">3857315</text>
<line x1="90" y1="450" x2="930" y2="450" stroke="#374151" stroke-width="2"/>
<line x1="90" y1="70" x2="90" y2="450" stroke="#374151" stroke-width="2"/>
<rect x="128.00" y="346.68" width="64.00" height="103.32" fill="#4E79A7" rx="8" ry="8"/>
<text x="160.00" y="338.68" text-anchor="middle" font-size="12" font-family="Maple Mono, Cascadia Code, monospace" fill="#111827">1048737</text>
<text x="160.00" y="476.00" text-anchor="middle" font-size="13" font-family="Maple Mono, Cascadia Code, monospace" fill="#111827">poseidon</text>
<rect x="268.00" y="227.09" width="64.00" height="222.91" fill="#F28E2B" rx="8" ry="8"/>
<text x="300.00" y="219.09" text-anchor="middle" font-size="12" font-family="Maple Mono, Cascadia Code, monospace" fill="#111827">2262754</text>
<text x="300.00" y="476.00" text-anchor="middle" font-size="13" font-family="Maple Mono, Cascadia Code, monospace" fill="#111827">fast</text>
<rect x="408.00" y="344.48" width="64.00" height="105.52" fill="#E15759" rx="8" ry="8"/>
<text x="440.00" y="336.48" text-anchor="middle" font-size="12" font-family="Maple Mono, Cascadia Code, monospace" fill="#111827">1071097</text>
<text x="440.00" y="476.00" text-anchor="middle" font-size="13" font-family="Maple Mono, Cascadia Code, monospace" fill="#111827">ola</text>
<rect x="548.00" y="349.47" width="64.00" height="100.53" fill="#76B7B2" rx="8" ry="8"/>
<text x="580.00" y="341.47" text-anchor="middle" font-size="12" font-family="Maple Mono, Cascadia Code, monospace" fill="#111827">1020470</text>
<text x="580.00" y="476.00" text-anchor="middle" font-size="13" font-family="Maple Mono, Cascadia Code, monospace" fill="#111827">cinnamon_ib</text>
<rect x="688.00" y="119.57" width="64.00" height="330.43" fill="#59A14F" rx="8" ry="8"/>
<text x="720.00" y="111.57" text-anchor="middle" font-size="12" font-family="Maple Mono, Cascadia Code, monospace" fill="#111827">3354187</text>
<text x="720.00" y="476.00" text-anchor="middle" font-size="13" font-family="Maple Mono, Cascadia Code, monospace" fill="#111827">max_parallel</text>
<rect x="828.00" y="361.34" width="64.00" height="88.66" fill="#EDC948" rx="8" ry="8"/>
<text x="860.00" y="353.34" text-anchor="middle" font-size="12" font-family="Maple Mono, Cascadia Code, monospace" fill="#111827">899927</text>
<text x="860.00" y="476.00" text-anchor="middle" font-size="13" font-family="Maple Mono, Cascadia Code, monospace" fill="#111827">output_centric</text>
<text x="510.00" y="532" text-anchor="middle" font-size="13" font-family="Maple Mono, Cascadia Code, monospace" fill="#6b7280">Method</text>
<text x="26" y="260.00" text-anchor="middle" font-size="13" font-family="Maple Mono, Cascadia Code, monospace" fill="#6b7280" transform="rotate(-90 26 260.00)">P99 Latency (ns)</text>
</svg>