<svg xmlns="http://www.w3.org/2000/svg" width="1380" height="560" viewBox="0 0 1380 560">
<rect x="0" y="0" width="100%" height="100%" fill="#ffffff"/>
<text x="690.0" y="36" text-anchor="middle" font-size="24" font-family="Maple Mono, Cascadia Code, monospace" fill="#1f2937">P99 Latency (ns) by Method</text>
<line x1="90" y1="450.00" x2="1350" y2="450.00" stroke="#e5e7eb" stroke-width="1"/>
<text x="80" y="454.00" text-anchor="end" font-size="12" font-family="Maple Mono, Cascadia Code, monospace" fill="#6b7280">0.000</text>
<line x1="90" y1="374.00" x2="1350" y2="374.00" stroke="#e5e7eb" stroke-width="1"/>
<text x="80" y="378.00" text-anchor="end" font-size="12" font-family="Maple Mono, Cascadia Code, monospace" fill="#6b7280">968410</text>
<line x1="90" y1="298.00" x2="1350" y2="298.00" stroke="#e5e7eb" stroke-width="1"/>
<text x="80" y="302.00" text-anchor="end" font-size="12" font-family="Maple Mono, Cascadia Code, monospace" fill="#6b7280">1936819</text>
<line x1="90" y1="222.00" x2="1350" y2="222.00" stroke="#e5e7eb" stroke-width="1"/>
<text x="80" y="226.00" text-anchor="end" font-size="12" font-family="Maple Mono, Cascadia Code, monospace" fill="#6b7280">2905229</text>
<line x1="90" y1="146.00" x2="1350" y2="146.00" stroke="#e5e7eb" stroke-width="1"/>
<text x="80" y="150.00" text-anchor="end" font-size="12" font-family="Maple Mono, Cascadia Code, monospace" fill="#6b7280">3873639</text>
<line x1="90" y1="70.00" x2="1350" y2="70.00" stroke="#e5e7eb" stroke-width="1"/>
<text x="80" y="74.00" text-anchor="end" font-size="12" font-family="Maple Mono, Cascadia Code, monospace" fill="#6b7280">4842049</text>
<line x1="90" y1="450" x2="1350" y2="450" stroke="#374151" stroke-width="2"/>
<line x1="90" y1="70" x2="90" y2="450" stroke="#374151" stroke-width="2"/>
<rect x="121.00" y="413.04" width="64.00" height="36.96" fill="#4E79A7" rx="8" ry="8"/>
<text x="153.00" y="405.04" text-anchor="middle" font-size="12" font-family="Maple Mono, Cascadia Code, monospace" fill="#111827">470934</text>
<text x="153.00" y="476.00" text-anchor="middle" font-size="13" font-family="Maple Mono, Cascadia Code, monospace" fill="#111827">fab</text>
<rect x="247.00" y="291.58" width="64.00" height="158.42" fill="#F28E2B" rx="8" ry="8"/>
<text x="279.00" y="283.58" text-anchor="middle" font-size="12" font-family="Maple Mono, Cascadia Code, monospace" fill="#111827">2018627</text>
<text x="279.00" y="476.00" text-anchor="middle" font-size="13" font-family="Maple Mono, Cascadia Code, monospace" fill="#111827">fast</text>
<rect x="373.00" y="355.36" width="64.00" height="94.64" fill="#E15759" rx="8" ry="8"/>
<text x="405.00" y="347.36" text-anchor="middle" font-size="12" font-family="Maple Mono, Cascadia Code, monospace" fill="#111827">1205964</text>
<text x="405.00" y="476.00" text-anchor="middle" font-size="13" font-family="Maple Mono, Cascadia Code, monospace" fill="#111827">ola</text>
<rect x="499.00" y="119.57" width="64.00" height="330.43" fill="#76B7B2" rx="8" ry="8"/>
<text x="531.00" y="111.57" text-anchor="middle" font-size="12" font-family="Maple Mono, Cascadia Code, monospace" fill="#111827">4210477</text>
<text x="531.00" y="476.00" text-anchor="middle" font-size="13" font-family="Maple Mono, Cascadia Code, monospace" fill="#111827">hera</text>
<rect x="625.00" y="448.97" width="64.00" height="1.03" fill="#59A14F" rx="8" ry="8"/>
<text x="657.00" y="440.97" text-anchor="middle" font-size="12" font-family="Maple Mono, Cascadia Code, monospace" fill="#111827">13134</text>
<text x="657.00" y="476.00" text-anchor="middle" font-size="13" font-family="Maple Mono, Cascadia Code, monospace" fill="#111827">cinnamon_output_aggregation</text>
<rect x="751.00" y="448.97" width="64.00" height="1.03" fill="#EDC948" rx="8" ry="8"/>
<text x="783.00" y="440.97" text-anchor="middle" font-size="12" font-family="Maple Mono, Cascadia Code, monospace" fill="#111827">13084</text>
<text x="783.00" y="476.00" text-anchor="middle" font-size="13" font-family="Maple Mono, Cascadia Code, monospace" fill="#111827">cinnamon_input_broadcast</text>
<rect x="877.00" y="449.02" width="64.00" height="0.98" fill="#B07AA1" rx="8" ry="8"/>
<text x="909.00" y="441.02" text-anchor="middle" font-size="12" font-family="Maple Mono, Cascadia Code, monospace" fill="#111827">12437</text>
<text x="909.00" y="476.00" text-anchor="middle" font-size="13" font-family="Maple Mono, Cascadia Code, monospace" fill="#111827">cinnamon</text>
<rect x="1003.00" y="389.71" width="64.00" height="60.29" fill="#FF9DA7" rx="8" ry="8"/>
<text x="1035.00" y="381.71" text-anchor="middle" font-size="12" font-family="Maple Mono, Cascadia Code, monospace" fill="#111827">768224</text>
<text x="1035.00" y="476.00" text-anchor="middle" font-size="13" font-family="Maple Mono, Cascadia Code, monospace" fill="#111827">digit_centric</text>
<rect x="1129.00" y="186.77" width="64.00" height="263.23" fill="#4E79A7" rx="8" ry="8"/>
<text x="1161.00" y="178.77" text-anchor="middle" font-size="12" font-family="Maple Mono, Cascadia Code, monospace" fill="#111827">3354187</text>
<text x="1161.00" y="476.00" text-anchor="middle" font-size="13" font-family="Maple Mono, Cascadia Code, monospace" fill="#111827">max_parallel</text>
<rect x="1255.00" y="379.37" width="64.00" height="70.63" fill="#F28E2B" rx="8" ry="8"/>
<text x="1287.00" y="371.37" text-anchor="middle" font-size="12" font-family="Maple Mono, Cascadia Code, monospace" fill="#111827">899927</text>
<text x="1287.00" y="476.00" text-anchor="middle" font-size="13" font-family="Maple Mono, Cascadia Code, monospace" fill="#111827">output_centric</text>
<text x="720.00" y="532" text-anchor="middle" font-size="13" font-family="Maple Mono, Cascadia Code, monospace" fill="#6b7280">Method</text>
<text x="26" y="260.00" text-anchor="middle" font-size="13" font-family="Maple Mono, Cascadia Code, monospace" fill="#6b7280" transform="rotate(-90 26 260.00)">P99 Latency (ns)</text>
</svg>