<svg xmlns="http://www.w3.org/2000/svg" width="1020" height="560" viewBox="0 0 1020 560">
<rect x="0" y="0" width="100%" height="100%" fill="#ffffff"/>
<text x="510.0" y="36" text-anchor="middle" font-size="24" font-family="Maple Mono, Cascadia Code, monospace" fill="#1f2937">Mean Latency (ns) by Method</text>
<line x1="90" y1="450.00" x2="990" y2="450.00" stroke="#e5e7eb" stroke-width="1"/>
<text x="80" y="454.00" text-anchor="end" font-size="12" font-family="Maple Mono, Cascadia Code, monospace" fill="#6b7280">0.000</text>
<line x1="90" y1="374.00" x2="990" y2="374.00" stroke="#e5e7eb" stroke-width="1"/>
<text x="80" y="378.00" text-anchor="end" font-size="12" font-family="Maple Mono, Cascadia Code, monospace" fill="#6b7280">968410</text>
<line x1="90" y1="298.00" x2="990" y2="298.00" stroke="#e5e7eb" stroke-width="1"/>
<text x="80" y="302.00" text-anchor="end" font-size="12" font-family="Maple Mono, Cascadia Code, monospace" fill="#6b7280">1936821</text>
<line x1="90" y1="222.00" x2="990" y2="222.00" stroke="#e5e7eb" stroke-width="1"/>
<text x="80" y="226.00" text-anchor="end" font-size="12" font-family="Maple Mono, Cascadia Code, monospace" fill="#6b7280">2905231</text>
<line x1="90" y1="146.00" x2="990" y2="146.00" stroke="#e5e7eb" stroke-width="1"/>
<text x="80" y="150.00" text-anchor="end" font-size="12" font-family="Maple Mono, Cascadia Code, monospace" fill="#6b7280">3873642</text>
<line x1="90" y1="70.00" x2="990" y2="70.00" stroke="#e5e7eb" stroke-width="1"/>
<text x="80" y="74.00" text-anchor="end" font-size="12" font-family="Maple Mono, Cascadia Code, monospace" fill="#6b7280">4842052</text>
<line x1="90" y1="450" x2="990" y2="450" stroke="#374151" stroke-width="2"/>
<line x1="90" y1="70" x2="90" y2="450" stroke="#374151" stroke-width="2"/>
<rect x="122.29" y="413.04" width="64.00" height="36.96" fill="#4E79A7" rx="8" ry="8"/>
<text x="154.29" y="405.04" text-anchor="middle" font-size="12" font-family="Maple Mono, Cascadia Code, monospace" fill="#111827">470934</text>
<text x="154.29" y="476.00" text-anchor="middle" font-size="13" font-family="Maple Mono, Cascadia Code, monospace" fill="#111827">fab</text>
<rect x="250.86" y="291.58" width="64.00" height="158.42" fill="#F28E2B" rx="8" ry="8"/>
<text x="282.86" y="283.58" text-anchor="middle" font-size="12" font-family="Maple Mono, Cascadia Code, monospace" fill="#111827">2018630</text>
<text x="282.86" y="476.00" text-anchor="middle" font-size="13" font-family="Maple Mono, Cascadia Code, monospace" fill="#111827">fast</text>
<rect x="379.43" y="355.36" width="64.00" height="94.64" fill="#E15759" rx="8" ry="8"/>
<text x="411.43" y="347.36" text-anchor="middle" font-size="12" font-family="Maple Mono, Cascadia Code, monospace" fill="#111827">1205960</text>
<text x="411.43" y="476.00" text-anchor="middle" font-size="13" font-family="Maple Mono, Cascadia Code, monospace" fill="#111827">ola</text>
<rect x="508.00" y="119.57" width="64.00" height="330.43" fill="#76B7B2" rx="8" ry="8"/>
<text x="540.00" y="111.57" text-anchor="middle" font-size="12" font-family="Maple Mono, Cascadia Code, monospace" fill="#111827">4210480</text>
<text x="540.00" y="476.00" text-anchor="middle" font-size="13" font-family="Maple Mono, Cascadia Code, monospace" fill="#111827">hera</text>
<rect x="636.57" y="389.71" width="64.00" height="60.29" fill="#59A14F" rx="8" ry="8"/>
<text x="668.57" y="381.71" text-anchor="middle" font-size="12" font-family="Maple Mono, Cascadia Code, monospace" fill="#111827">768224</text>
<text x="668.57" y="476.00" text-anchor="middle" font-size="13" font-family="Maple Mono, Cascadia Code, monospace" fill="#111827">digit_centric</text>
<rect x="765.14" y="186.77" width="64.00" height="263.23" fill="#EDC948" rx="8" ry="8"/>
<text x="797.14" y="178.77" text-anchor="middle" font-size="12" font-family="Maple Mono, Cascadia Code, monospace" fill="#111827">3354190</text>
<text x="797.14" y="476.00" text-anchor="middle" font-size="13" font-family="Maple Mono, Cascadia Code, monospace" fill="#111827">max_parallel</text>
<rect x="893.71" y="379.37" width="64.00" height="70.63" fill="#B07AA1" rx="8" ry="8"/>
<text x="925.71" y="371.37" text-anchor="middle" font-size="12" font-family="Maple Mono, Cascadia Code, monospace" fill="#111827">899927</text>
<text x="925.71" y="476.00" text-anchor="middle" font-size="13" font-family="Maple Mono, Cascadia Code, monospace" fill="#111827">output_centric</text>
<text x="540.00" y="532" text-anchor="middle" font-size="13" font-family="Maple Mono, Cascadia Code, monospace" fill="#6b7280">Method</text>
<text x="26" y="260.00" text-anchor="middle" font-size="13" font-family="Maple Mono, Cascadia Code, monospace" fill="#6b7280" transform="rotate(-90 26 260.00)">Mean Latency (ns)</text>
</svg>